<svg width="22" height="22" viewBox="0 0 22 22" fill="none" xmlns="http://www.w3.org/2000/svg">
<path d="M4.69219 14.5092C3.31579 14.5092 2.2 13.3934 2.2 12.017V3.44659C2.2 2.75812 2.7583 2.20001 3.447 2.20001C4.13569 2.20001 4.69399 2.75812 4.69399 3.44659V11.2419C4.69399 11.6691 5.04027 12.0154 5.46743 12.0154H15.5427L12.3808 8.85333C11.8938 8.36633 11.8938 7.57675 12.3808 7.08975C12.8678 6.60275 13.6573 6.60275 14.1443 7.08975L19.4348 12.3805C19.9217 12.8675 19.9218 13.6571 19.4348 14.1441L14.1443 19.4348C13.6573 19.9218 12.8678 19.9217 12.3808 19.4348C11.8938 18.9478 11.8938 18.1582 12.3808 17.6712L15.5427 14.5092H4.69219Z" fill="#0080FF"/>
<path d="M4.69219 14.5092C3.31579 14.5092 2.2 13.3934 2.2 12.017V3.44659C2.2 2.75812 2.7583 2.20001 3.447 2.20001C4.13569 2.20001 4.69399 2.75812 4.69399 3.44659V11.2419C4.69399 11.6691 5.04027 12.0154 5.46743 12.0154H15.5427L12.3808 8.85333C11.8938 8.36633 11.8938 7.57675 12.3808 7.08975C12.8678 6.60275 13.6573 6.60275 14.1443 7.08975L19.4348 12.3805C19.9217 12.8675 19.9218 13.6571 19.4348 14.1441L14.1443 19.4348C13.6573 19.9218 12.8678 19.9217 12.3808 19.4348C11.8938 18.9478 11.8938 18.1582 12.3808 17.6712L15.5427 14.5092H4.69219Z" fill="white" fill-opacity="0.5" style="mix-blend-mode:hard-light"/>
</svg>
