<svg width="1024" height="1024" viewBox="0 0 1024 1024" fill="none" xmlns="http://www.w3.org/2000/svg">
    <g id="github--0f-alt_qlnk_mono_flat-o1-0br-1024p">
        <g id="container">
            <g id="pos-frame">
                <g id="icon">
                    <path id="logo" fill-rule="evenodd" clip-rule="evenodd" d="M372.652 846.432C372.026 841.383 375.066 835.644 382.276 829.42C392.501 820.593 410.328 820.292 410.329 809.181L409.772 730.852C295.551 756.302 271.444 681.22 271.444 681.22C252.812 632.707 225.985 619.724 225.858 619.662C188.655 593.584 228.564 594.085 228.666 594.086C269.831 597.05 291.538 637.317 291.604 637.44C328.222 701.757 387.651 683.163 411.08 672.413C414.765 645.222 425.409 626.657 437.151 616.151C345.958 605.513 250.094 569.439 250.093 408.236C250.093 362.303 266.131 324.772 292.395 295.309C288.132 284.711 274.081 241.922 296.373 183.974C296.433 183.955 330.919 172.714 409.309 227.099C442.059 217.777 477.181 213.103 512.073 212.942C546.965 213.103 582.116 217.777 614.927 227.099C693.29 172.667 727.72 183.974 727.72 183.974C750.067 241.923 736.006 284.712 731.743 295.309C758.069 324.772 774 362.303 774 408.236C774 569.823 677.952 605.402 586.528 615.818C601.254 628.874 613.014 653.123 614.376 693.728C615.518 727.747 613.9 809.181 613.9 809.181C613.901 820.376 631.815 820.555 642.101 829.362C649.069 835.329 652.051 840.905 651.718 845.798C561.432 876.521 463.049 876.733 372.652 846.432ZM401.539 685.479C406.393 684.615 410.738 686.651 411.357 690.093C411.941 693.478 408.548 696.953 403.701 697.88C398.935 698.771 394.522 696.683 393.917 693.325C393.325 689.856 396.78 686.377 401.539 685.479ZM359.857 697.72C359.857 694.216 363.712 691.365 368.621 691.281C373.502 691.184 377.499 693.972 377.499 697.42C377.615 700.889 373.672 703.767 368.79 703.83C363.882 703.942 359.912 701.134 359.857 697.72ZM326.882 690.431C327.848 687.115 332.485 685.553 337.169 687.051C341.806 688.486 344.851 692.319 343.886 695.669C342.893 698.965 338.276 700.462 333.625 699.061C328.983 697.619 325.945 693.761 326.882 690.431ZM295.869 667.907C298.147 665.357 302.967 666.076 306.502 669.517C310.065 672.903 311.152 677.75 308.752 680.265C306.502 682.808 301.709 682.127 298.201 678.657C294.611 675.265 293.612 670.45 295.869 667.907ZM279.204 638.249C281.753 636.451 285.806 638.068 288.382 641.781C290.891 645.585 290.893 650.073 288.323 651.905C285.807 653.696 281.694 652.016 279.151 648.275C276.636 644.534 276.634 640.046 279.204 638.249ZM263.881 617.592C265.901 615.732 269.612 616.603 272.304 619.535C274.99 622.503 275.514 626.399 273.468 628.28C271.51 630.139 267.682 629.275 265.085 626.336C262.399 623.403 261.896 619.48 263.881 617.592ZM242.549 605.776C243.433 603.623 246.65 603.024 249.621 604.466C252.606 605.838 254.306 608.717 253.272 610.814C252.368 612.904 249.157 613.53 246.234 612.095C243.256 610.723 241.584 607.873 242.549 605.776Z" fill="black"/>
                </g>
            </g>
        </g>
    </g>
</svg>
