<svg width="1024" height="1024" viewBox="0 0 1024 1024" fill="none" xmlns="http://www.w3.org/2000/svg">
    <g id="github--s1-alt_qlnk_clr_flat-o1-512br-1024p">
        <g id="base-v3.3.0">
            <g id="solid-512px">
                <rect width="1024" height="1024" rx="512" fill="#001A4D"/>
                <rect x="12" y="12" width="1000" height="1000" rx="500" stroke="black" stroke-opacity="0.25" stroke-width="24"/>
            </g>
        </g>

        <g id="container">
            <g id="pos-frame">
                <g id="icon">
                    <path id="logo" fill-rule="evenodd" clip-rule="evenodd" d="M348.504 997.419C347.767 991.471 351.345 984.711 359.835 977.38C371.873 966.985 392.863 966.63 392.864 953.543L392.208 861.284C257.726 891.259 229.344 802.824 229.344 802.824C207.406 745.684 175.82 730.392 175.671 730.32C131.868 699.604 178.857 700.193 178.977 700.195C227.444 703.685 253.001 751.114 253.079 751.258C296.193 827.014 366.164 805.113 393.748 792.452C398.087 760.425 410.619 738.558 424.443 726.184C317.074 713.654 204.205 671.165 204.205 481.292C204.205 427.191 223.088 382.985 254.011 348.282C248.991 335.799 232.447 285.401 258.694 217.147C258.764 217.124 299.367 203.885 391.663 267.942C430.222 256.962 471.575 251.456 512.655 251.267C553.736 251.456 595.122 256.962 633.754 267.942C726.018 203.83 766.554 217.147 766.554 217.147C792.866 285.402 776.311 335.801 771.291 348.282C802.286 382.985 821.044 427.191 821.044 481.292C821.043 671.616 707.958 713.523 600.317 725.791C617.655 741.169 631.502 769.731 633.105 817.557C634.449 857.627 632.544 953.543 632.544 953.543C632.546 966.728 653.637 966.939 665.748 977.313C673.952 984.341 677.463 990.909 677.071 996.672C570.77 1032.86 454.936 1033.11 348.504 997.419ZM382.515 807.841C388.23 806.824 393.345 809.222 394.074 813.276C394.761 817.263 390.767 821.356 385.06 822.447C379.449 823.498 374.253 821.037 373.54 817.083C372.844 812.996 376.911 808.899 382.515 807.841ZM333.439 822.259C333.439 818.132 337.978 814.774 343.758 814.676C349.505 814.561 354.211 817.844 354.211 821.906C354.347 825.992 349.704 829.382 343.957 829.456C338.178 829.587 333.504 826.28 333.439 822.259ZM294.615 813.674C295.752 809.768 301.212 807.929 306.727 809.693C312.186 811.383 315.772 815.897 314.635 819.844C313.466 823.725 308.029 825.488 302.554 823.839C297.088 822.14 293.511 817.596 294.615 813.674ZM258.101 787.144C260.783 784.141 266.457 784.987 270.62 789.041C274.814 793.029 276.095 798.738 273.269 801.7C270.619 804.695 264.976 803.893 260.846 799.806C256.619 795.81 255.444 790.139 258.101 787.144ZM238.479 752.211C241.481 750.094 246.252 751.999 249.286 756.372C252.24 760.853 252.241 766.138 249.216 768.296C246.254 770.405 241.411 768.427 238.417 764.021C235.456 759.614 235.454 754.329 238.479 752.211ZM220.439 727.88C222.816 725.69 227.186 726.716 230.356 730.17C233.518 733.666 234.135 738.254 231.726 740.47C229.42 742.66 224.914 741.642 221.856 738.18C218.694 734.726 218.101 730.104 220.439 727.88ZM195.323 713.963C196.363 711.428 200.151 710.722 203.649 712.42C207.163 714.037 209.165 717.427 207.948 719.897C206.883 722.359 203.103 723.097 199.661 721.407C196.156 719.79 194.186 716.433 195.323 713.963Z" fill="white"/>
                </g>
            </g>
        </g>
    </g>
</svg>
