<svg width="1024" height="1024" viewBox="0 0 1024 1024" fill="none" xmlns="http://www.w3.org/2000/svg">
    <g id="link--0f-alt_qlnk_mono_flat-o1-0br-1024p">
        <g id="container">
            <g id="icon">
                <path id="bottom-link" d="M482.958 800.667L590.743 693.832C606.119 678.456 614.935 667.426 622.891 648.551C582.325 665.651 539.1 660.861 498.558 643.684L410.841 728.55C386.944 752.448 343.391 749.563 319.493 725.666L298.339 704.511C274.442 680.614 271.557 637.061 295.454 613.163L410.841 497.777C432.018 476.6 473.925 472.391 496.172 492.375C533.53 525.932 496.172 492.375 533.53 525.932C555.777 545.916 586.281 543.608 607.458 522.431L627.526 502.363C619.573 483.592 611.128 470.194 598.345 454.507C588.281 442.156 569.498 425.66 569.498 425.66C554.217 410.379 536.659 398.762 517.916 390.809C477.356 373.6 431.248 373.551 390.657 390.661C371.783 398.617 354.101 410.284 338.725 425.66L223.338 541.047C159.611 604.773 159.611 708.094 223.338 771.82L252.184 800.667C315.911 864.393 419.232 864.393 482.958 800.667Z" fill="black"/>
                <path id="top-link" d="M541.042 224.287C477.315 288.013 445.783 321.447 430.406 336.823C415.03 352.2 406.81 372.602 406.81 372.602C445.478 359.539 486.612 360.879 528.292 384.121C528.292 384.121 589.261 320.301 613.159 296.404C637.056 272.506 680.609 275.391 704.506 299.288C728.404 323.186 701.763 296.545 725.661 320.443C749.558 344.34 752.443 387.893 728.545 411.79L615.06 528.127C598.768 544.12 565.26 568.002 526.379 533.757C516.995 525.492 507.249 516.473 495.221 504.723C473.831 483.825 436.769 484.196 415.592 505.373L396.941 524.292C396.941 524.292 402.853 549.377 438.036 584.561C473.219 619.744 486.134 626.34 504.877 634.293C545.436 651.502 592.752 651.403 633.343 634.293C652.218 626.337 669.899 614.67 685.275 599.294C700.652 583.917 736.936 547.633 800.662 483.907C864.388 420.181 864.388 316.86 800.662 253.134C736.936 189.407 835.542 288.013 771.815 224.287C708.089 160.561 604.768 160.561 541.042 224.287Z" fill="black"/>
            </g>
        </g>
    </g>
</svg>
