<svg width="1025" height="1024" viewBox="0 0 1025 1024" fill="none" xmlns="http://www.w3.org/2000/svg">
    <g id="linkedin--s1-alt_qlnk_clr_flat-o1-512br-1024p">
        <g id="base-v3.2">
            <g id="solid-512px">
                <rect x="0.429688" width="1024" height="1024" rx="512" fill="#004DE5"/>
                <rect x="12.4297" y="12" width="1000" height="1000" rx="500" stroke="black" stroke-opacity="0.25" stroke-width="24"/>
            </g>
        </g>
        <g id="container">
            <g id="icon">
                <path d="M353.777 281.226C353.777 320.912 321.606 353.084 281.92 353.084C242.234 353.084 210.062 320.912 210.062 281.226C210.062 241.541 242.234 209.369 281.92 209.369C321.606 209.369 353.777 241.541 353.777 281.226Z" fill="white"/>
                <path d="M338.104 411.122C341.418 411.122 344.104 413.809 344.104 417.122V808.629C344.104 811.943 341.418 814.629 338.104 814.629H225.736C222.422 814.629 219.736 811.943 219.736 808.629V417.122C219.736 413.809 222.422 411.122 225.736 411.122H338.104Z" fill="white"/>
                <path d="M527.893 418.496C527.893 415.182 525.207 412.496 521.893 412.496H420.58C417.266 412.496 414.58 415.182 414.58 418.496V808.621C414.58 811.934 417.266 814.621 420.58 814.621H530.184C533.498 814.621 536.184 811.934 536.184 808.621V586.62C543.094 498.18 686.808 495.417 692.336 581.084V808.621C692.336 811.934 695.022 814.621 698.336 814.621H807.941C811.254 814.621 813.941 811.934 813.941 808.621V536.864C813.941 446.79 667.434 335.785 538.599 458.376C534.662 462.122 527.893 459.451 527.893 454.017V418.496Z" fill="white"/>
            </g>
        </g>
    </g>
</svg>
